<?xml version="1.0" encoding="utf-8"?>
<!-- Generator: Adobe Illustrator 22.0.1, SVG Export Plug-In . SVG Version: 6.00 Build 0)  -->
<svg version="1.1" id="Слой_1" xmlns="http://www.w3.org/2000/svg" xmlns:xlink="http://www.w3.org/1999/xlink" x="0px" y="0px"
	 viewBox="0 0 200 200" style="enable-background:new 0 0 200 200;" xml:space="preserve">
<style type="text/css">
	.st0{fill:#FFFFFF;}
	.st1{fill:#FFFFFF;stroke:#FFFFFF;stroke-miterlimit:10;}
</style>
<circle class="st0" cx="100" cy="58" r="48"/>
<g>
	<g>
		<path class="st0" d="M54.6,104.9c11.7,10.3,27.2,14.1,42.5,14.2c15.8,0.1,35.9-2.2,47.6-13.9c1.4-1.4-0.7-3.5-2.1-2.1
			c-11.1,11-30.6,13.1-45.5,13c-14.5-0.1-29.3-3.6-40.4-13.3C55.3,101.6,53.1,103.7,54.6,104.9L54.6,104.9z"/>
	</g>
</g>
<g>
	<g>
		<path class="st0" d="M146.3,103.8c6.7-5.6,15.8,5.1,19.3,10.1c3.8,5.2,6.4,11.1,8.2,17.3c4.1,14,3.3,28.9,2.2,43.2
			c-0.2,1.9,2.8,1.9,3,0c1.4-17.9,2-36.6-5.7-53.2c-4-8.7-17.6-29-29.1-19.5C142.7,102.9,144.8,105.1,146.3,103.8L146.3,103.8z"/>
	</g>
</g>
<g>
	<g>
		<path class="st0" d="M57.4,103.6c-2.9-1.3-5-3.5-8.3-3.8c-2.6-0.2-5.2,0.8-7.3,2.2c-5.9,4-8.1,12.4-9.9,18.8
			c-4.9,17.2-5.2,35.2-5.2,53c0,1.9,3,1.9,3,0c0-13.9,0.2-28,2.7-41.7c1.2-6.6,2.9-13.2,5.5-19.4c1.4-3.4,3.3-7,6.7-8.8
			c4.6-2.4,7.5,0.5,11.4,2.3C57.6,107,59.1,104.4,57.4,103.6L57.4,103.6z"/>
	</g>
</g>
<g>
	<g>
		<path class="st0" d="M26.3,172.9c2.7,13.8,18.6,18.2,30.6,20.4c15.8,3,32.3,3.7,48.3,4.8c8.5,0.5,17,0.8,25.4-0.2
			c7.4-0.9,14.8-2.5,22.1-3.9c6.3-1.2,14-1.6,19.4-5.4c4.5-3.3,6.6-8.6,6.3-14c-0.1-1.9-3.1-1.9-3,0c0.8,15.7-19.5,15.8-30.6,17.9
			c-14,2.7-27.4,3.5-41.6,2.5c-13.7-0.9-27.4-1.8-41-3.8c-11.9-1.7-30.3-5-33.1-19.1C28.9,170.2,26,171,26.3,172.9L26.3,172.9z"/>
	</g>
</g>
<g>
	<g>
		<path class="st0" d="M45.7,102.5c-2,1.1-3.9,2.3-5.8,3.6c0.5,0.9,1,1.7,1.5,2.6c2.3-1.6,4.4-2.8,7.1-3.7c-0.4-0.9-0.8-1.8-1.2-2.7
			c-2.6,1.7-5.1,3.4-7.7,5.1c-1.6,1.1-0.2,3.5,1.5,2.6c1.7-1,2.9-1.3,4.8-1.6c-0.5-0.8-1-1.7-1.5-2.5c-2.1,2.1-4.2,4.1-6.3,6.2
			c-1.2,1.2,0.3,3.2,1.8,2.4c3-1.7,6.1-3.1,9.4-4.2c-0.6-0.7-1.1-1.5-1.7-2.2c-1.9,4-6.5,5.7-9.1,9.3c-0.8,1.1,0.5,2.6,1.7,2.2
			c3-0.9,6-1.8,8.9-2.6c-0.5-0.8-1-1.7-1.5-2.5c-2.8,2.4-5.5,4.9-8.3,7.3c-1.1,1,0.1,2.9,1.5,2.5c0.6-0.2,7.9-2.8,8.2-2.5
			c0.2,0.3-5.9,6.5-6.5,7.1c-0.8,0.9-0.3,2.7,1.1,2.6c5.4-0.7,9-5,14.2-5.9c-0.5-0.8-1-1.7-1.5-2.5c-3,3.4-6.2,6.6-9.5,9.8
			c-1,0.9-0.2,2.5,1.1,2.6c4.8,0.1,9.1-4.8,13.7-3.8c-0.2-0.8-0.4-1.7-0.7-2.5c-4.3,3.9-8.6,7.8-12.8,11.7c-0.9,0.8-0.4,2.2,0.7,2.5
			c3,0.9,5.1-0.6,7.6-2.3c4.1-2.7,8.4-5.1,12.8-7.2c2.6-1.2,2.6-1.6,0.4,0.4c-1.8,1.7-3.8,3.2-5.8,4.6c-3.2,2.4-6.4,4.9-8.9,8.1
			c-0.9,1.1-0.3,2.4,1.1,2.6c5.6,0.6,11.1-1.7,16.6-2.9c7.1-1.5,14.1-2,21.2-0.2c1.9,0.5,2.7-2.4,0.8-2.9
			c-5.8-1.5-11.5-1.6-17.4-0.8c-6.9,1-14.2,4.4-21.1,3.7c0.4,0.9,0.7,1.7,1.1,2.6c3.5-4.3,8.1-7.2,12.4-10.7
			c2.3-1.9,6.7-4.6,5.7-8.1c-0.1-0.5-0.5-0.9-1-1c-3.1-0.6-6.9,2.2-9.5,3.5c-2.3,1.2-4.6,2.4-6.8,3.8c-2.1,1.3-5.4,4.7-8.2,3.8
			c0.2,0.8,0.4,1.7,0.7,2.5c4.3-3.9,8.6-7.8,12.8-11.7c0.8-0.7,0.4-2.3-0.7-2.5c-5.6-1.2-9.2,3.8-14.5,3.7c0.4,0.9,0.7,1.7,1.1,2.6
			c3.3-3.1,6.5-6.4,9.5-9.8c1-1.2,0-2.8-1.5-2.5c-5,0.9-8.4,5.2-13.4,5.8c0.4,0.9,0.7,1.7,1.1,2.6c2.5-2.7,7.7-6.3,7.7-10.3
			c0-0.5-0.3-1.1-0.7-1.3c-3.4-1.8-8.2,0.9-11.6,2c0.5,0.8,1,1.7,1.5,2.5c2.8-2.4,5.5-4.9,8.3-7.3c1.1-1-0.1-2.9-1.5-2.5
			c-3,0.9-6,1.8-8.9,2.6c0.6,0.7,1.1,1.5,1.7,2.2c2.6-3.7,7.1-5.1,9.1-9.3c0.5-1.1-0.3-2.6-1.7-2.2c-3.6,1.2-6.9,2.6-10.1,4.5
			c0.6,0.8,1.2,1.6,1.8,2.4c2.1-2.1,4.2-4.1,6.3-6.2c1.2-1.2-0.1-2.7-1.5-2.5c-2,0.3-3.7,0.9-5.5,1.9c0.5,0.9,1,1.7,1.5,2.6
			c2.6-1.7,5.1-3.4,7.7-5.1c1.3-0.9,0.5-3.3-1.2-2.7c-2.9,1-5.4,2.2-7.8,4c-1.5,1.1-0.1,3.7,1.5,2.6c1.9-1.3,3.8-2.5,5.8-3.6
			C48.9,104.2,47.4,101.6,45.7,102.5L45.7,102.5z"/>
	</g>
</g>
<ellipse class="st1" cx="49.5" cy="123.5" rx="17" ry="21"/>
<ellipse class="st1" cx="151.5" cy="121.5" rx="17" ry="21"/>
<ellipse class="st1" cx="44.5" cy="165.5" rx="17" ry="21"/>
<ellipse class="st1" cx="160.5" cy="169.5" rx="17" ry="21"/>
<rect x="28.5" y="136.5" class="st1" width="149" height="32"/>
<rect x="51.5" y="161.5" class="st1" width="107" height="30"/>
<rect x="61.5" y="117.5" class="st1" width="87" height="25"/>
<g>
	<g>
		<path class="st0" d="M61.3,113.2c-0.1,0-0.1,0-0.2,0c-0.8,0-1.5,0.7-1.5,1.5c0,0.8,0.7,1.5,1.5,1.5c0.1,0,0.1,0,0.2,0
			c0.8,0,1.5-0.7,1.5-1.5C62.8,113.8,62.2,113.2,61.3,113.2L61.3,113.2z"/>
	</g>
</g>
<g>
	<g>
		<path class="st0" d="M36.9,128.8c-1.7,2.4-3,4.9-4,7.7c1,0.1,2,0.3,2.9,0.4c-0.2-1.8-0.5-3.4-1.1-5.1c-0.4-1.1-2.1-1.6-2.7-0.4
			c-0.8,1.6-1.2,3.2-1.4,5c-0.1,1.7,2.6,2,2.9,0.4c0.3-1.3,0.5-2.5,0.6-3.8c0.2-1.7-2.5-2-2.9-0.4c-0.4,1.4-0.5,2.7-0.3,4.1
			c0.2,1.5,1.9,2.1,2.8,0.8c0.7-1,1.2-2,1.6-3.2c-1-0.1-2-0.3-2.9-0.4c-0.2,5,1.6,9.5,5.1,13.1c1.4,1.4,3.5-0.7,2.1-2.1
			c-3-3-4.4-6.7-4.3-10.9c0.1-1.8-2.4-1.9-2.9-0.4c-0.3,0.9-0.7,1.7-1.3,2.5c0.9,0.3,1.9,0.5,2.8,0.8c-0.1-1.2-0.1-2.2,0.2-3.3
			c-1-0.1-2-0.3-2.9-0.4c-0.1,1-0.2,2.1-0.5,3c1,0.1,2,0.3,2.9,0.4c0-1.2,0.4-2.4,1-3.5c-0.9-0.1-1.8-0.2-2.7-0.4
			c0.5,1.5,0.8,2.8,1,4.3c0.2,1.7,2.3,2.1,2.9,0.4c0.9-2.5,2.1-4.8,3.6-7C40.5,128.7,37.9,127.2,36.9,128.8L36.9,128.8z"/>
	</g>
</g>
<g>
	<g>
		<path class="st0" d="M50.3,179.1c-0.7-1.3-1.5-0.9-2.7-0.3c-0.8,0.4-1,1.8-0.3,2.4c2.4,1.9,4.8,3.9,7.1,5.9
			c0.2-0.8,0.4-1.7,0.7-2.5c-0.2,0-3.2-0.7-3.9-0.9c-1.5-0.3-2.4,1.3-1.5,2.5c0.7,0.8,1.4,1.7,1.9,2.6c0.2-0.7,0.4-1.4,0.5-2.1
			c-0.2,0.2-5.1-2.1-5.9-2.4c-1.5-0.6-2.4,1.5-1.5,2.5c0.7,0.8,1.4,1.6,2.1,2.4c0.7-0.7,1.4-1.4,2.1-2.1c-1.1-1.1-2.1-1.7-3.6-2.3
			c-1.5-0.6-2.4,1.5-1.5,2.5c0.4,0.5,0.9,1,1.3,1.4c0.7-0.7,1.4-1.4,2.1-2.1c-1.5-1.3-2.8-2-4.7-2.6c-1.7-0.6-2.5,1.8-1.2,2.7
			c3.1,2.2,6.6,1.8,10.2,1.6c5.5-0.3,11-0.3,16.5-0.2c1.9,0,1.9-3,0-3c-4.3-0.1-8.6-0.1-12.8,0c-4,0.1-8.9,1.3-12.4-1.1
			c-0.4,0.9-0.8,1.8-1.2,2.7c1.1,0.6,2.2,1.2,3.4,1.9c1.5,1.2,3.4-0.7,2.1-2.1c-0.4-0.5-0.9-1-1.3-1.4c-0.5,0.8-1,1.7-1.5,2.5
			c0.8,0.5,1.5,1,2.3,1.5c1.4,1.4,3.4-0.7,2.1-2.1c-0.7-0.8-1.4-1.6-2.1-2.4c-0.5,0.8-1,1.7-1.5,2.5c2.1,0.9,6.1,3.8,8.2,2.1
			c0.7-0.5,0.9-1.2,0.5-2.1c-0.5-1.2-1.6-2.2-2.4-3.2c-0.5,0.8-1,1.7-1.5,2.5c2.3,0.4,3.2,1.5,5.5,0.9c1-0.3,1.6-1.8,0.7-2.5
			c-2.3-2-4.7-4-7.1-5.9c-0.1,0.8-0.2,1.6-0.3,2.4c1.8-0.9,5.6-0.2,3.7-3.8C52,175.9,49.4,177.4,50.3,179.1L50.3,179.1z"/>
	</g>
</g>
<g>
	<g>
		<path class="st0" d="M90.6,187.8c-4.6-1.2-9.1-1.6-13.9-1c-1.7,0.2-2.1,2.4-0.4,2.9c3.4,1.2,6.6,2.5,9.8,4
			c0.4-0.9,0.8-1.8,1.2-2.7c-4.8-1.7-9.5-2.5-14.6-2.3c-1.7,0.1-2.1,2.5-0.4,2.9c1.9,0.5,3.6,1.1,5.5,1.9c0.4-0.9,0.8-1.8,1.2-2.7
			c-3.2-0.6-6.4-1-9.6-1c-1.4,0-2.1,2.2-0.8,2.8c6.1,2.8,13.8,1.9,20.3,1.9c8.7,0.1,17.5-0.3,26.2-0.9c0-1,0-2,0-3
			c-5.3,0.5-10.6,0.4-16-0.2c0,1,0,2,0,3c5.5,0.4,11,1,16.4,1.8c0.1-1,0.3-2,0.4-2.9c-4.6-0.5-9.1-0.6-13.7-0.5c0,1,0,2,0,3
			c2.6-0.3,4.8,0,7.3,1c0.1-1,0.3-2,0.4-2.9c-3,0.2-5.7,0-8.6-0.7c-0.3,1-0.5,1.9-0.8,2.9c5.2,1.2,10.3,1.5,15.6,0.8
			c1.6-0.2,2.2-2.5,0.4-2.9c-4.4-1.1-8.6-1.2-13-0.3c-1.7,0.3-1.3,3,0.4,2.9c10.6-0.4,21.1-1.7,31.5-4.1c1.7-0.4,1.3-2.9-0.4-2.9
			c-5.5-0.1-10.8,0.7-16,2.4c-1.6,0.5-1.4,3,0.4,2.9c5.2-0.1,10.3-0.1,15.5-0.2c-0.1-1-0.3-2-0.4-2.9c-6.3,1-12.5,2-18.8,3
			c0.3,1,0.5,1.9,0.8,2.9c11.5-2.2,22.9-3,34.3-6.2c1.6-0.4,1.3-3.1-0.4-2.9c-4.4,0.5-8.3,1.7-12.2,3.7c-1.6,0.8-0.4,3,1.2,2.7
			c4.1-0.7,8.3-1.4,12.4-2.1c1.9-0.3,1.1-3.2-0.8-2.9c-4.9,0.8-9.8,1.6-14.6,2.5c-1.7,0.3-1.3,3.1,0.4,2.9
			c11.8-0.8,21-6.5,24.4-18.2c4.1-14.3,1.7-30.5,1.2-45.2c-0.9,0.3-1.9,0.5-2.8,0.8c2.2,3.6,3.5,7.3,4.1,11.5
			c0.2,1.7,3.2,1.3,2.9-0.4c-0.5-3.5-0.9-6.9-1.4-10.4c-0.2-1.9-2.9-2-3,0c-0.3,4.2,1,7.6,3.7,10.8c1.1,1.3,2.7-0.2,2.5-1.5
			c-0.7-4.6-1.6-9-2.9-13.4c-0.5-1.6-3-1.3-2.9,0.4c0.2,3.6,1.1,6.8,3,9.9c0.8,1.4,2.6,0.7,2.8-0.8c0.4-4.1,0.1-8.1-0.8-12.1
			c-0.5-1.9-3.2-1.1-2.9,0.8c0.5,3.5,1.6,6.3,3.6,9.2c0.8,1.2,2.8,0.8,2.8-0.8c0-3.8-0.4-7.5-1.1-11.3c-0.3-1.7-2.8-1.2-2.9,0.4
			c-0.3,4.7,0.7,8.9,3.1,12.9c0.7,1.2,3,0.8,2.8-0.8c-0.4-3.9-1.4-7.5-3.1-11c-0.7-1.4-2.8-0.7-2.8,0.8c0,4.8,1.2,9.1,3.6,13.2
			c0.7,1.2,3,0.8,2.8-0.8c-0.4-3.6-1-7.2-1.6-10.8c-0.3-1.7-3-1.3-2.9,0.4c0.2,3.4,0.8,6.4,2.1,9.5c0.6,1.5,3,1.4,2.9-0.4
			c-0.2-3.4-0.6-6.7-1.2-10c-0.3-1.8-2.8-1.2-2.9,0.4c-0.3,3.1,0.2,5.5,1.6,8.3c0.7,1.3,2.8,0.7,2.8-0.8c0-2.7-0.5-5.1-1.4-7.7
			c-0.7-1.8-3.3-1.1-2.9,0.8c0.6,3,1.6,5.7,3,8.5c0.7,1.3,2.9,0.7,2.8-0.8c-0.1-2-0.3-4-0.4-5.9c-1,0-2,0-3,0c0.2,2.3,0.5,4.5,1,6.8
			c0.3,1.6,3.2,1.3,2.9-0.4c-1.1-8.3-4.5-15.5-10.3-21.5c-1.2-1.3-3.1,0.3-2.4,1.8c1.5,3.2,3,6.4,4.6,9.6c0.8-0.6,1.6-1.2,2.4-1.8
			c-5-5.3-10.7-10.4-18.3-10.6c-8.4-0.2-16,4.6-24.5,4.3c0.3,0.9,0.5,1.9,0.8,2.8c4-2.5,8.1-4.4,12.7-5.8c1.9-0.6,1.1-3.3-0.8-2.9
			c-5.3,1-10.5,2.2-15.7,3.5c0.3,1,0.5,1.9,0.8,2.9c4.4-1.2,8.6-2.8,12.7-5c1.6-0.9,0.4-3-1.2-2.7c-5.5,0.9-10.7,2.7-15.7,5.1
			c-1.5,0.7-0.4,3.4,1.2,2.7c4.4-1.8,8.8-3.5,13.1-5.3c-0.3-1-0.5-1.9-0.8-2.9c-11,4.5-22.4,8.5-34.2,10.4
			c-11.7,1.9-26.3,2.5-36.3-4.9c-0.4,0.9-0.8,1.8-1.2,2.7c3.9,1.1,7.6,2.4,11.3,4c1.4,0.6,3.2-1.1,1.8-2.4
			c-4.7-4.3-10.2-6.6-16.5-6.9c-1.7-0.1-2.1,2.6-0.4,2.9c5.4,1.1,10.5,2.7,15.5,4.8c0.3-1,0.5-1.9,0.8-2.9c-4-1.6-8.1-3.2-12.1-4.8
			c-0.3,1-0.5,1.9-0.8,2.9c3.8,1,7.6,2.1,11.5,3.1c1.5,0.4,2.4-1.4,1.5-2.5c-3.1-3.4-6.9-5.4-11.5-6.1c-1.5-0.2-2.9,2-1.2,2.7
			c2.6,1.1,5.2,2.3,7.9,3.4c1.7,0.7,3.3-1.7,1.5-2.6c-2.8-1.5-5.7-2.9-8.5-4.4c-0.4,0.9-0.8,1.8-1.2,2.7c4,1.5,7.9,2.9,11.9,4.4
			c2.1,0.8,4.5,2.3,6.8,1.5c0.5-0.2,1-0.5,1-1c0-0.2,0.1-0.3,0.1-0.5c0.2-0.9-0.2-1.5-1-1.8c-3.1-1.2-6.3-2.1-9.6-2.7
			c-1.9-0.3-2.6,2.3-0.8,2.9c2.6,0.9,5.1,2,7.6,3.3c0.4-0.9,0.8-1.8,1.2-2.7c-4-1.3-8-2-12.2-2.4c-1.4-0.1-2.1,2.2-0.8,2.8
			c9.5,4.3,19.1,8.5,28.6,12.8c1.7,0.8,3.3-1.8,1.5-2.6c-9.5-4.3-19.1-8.5-28.6-12.8c-0.3,0.9-0.5,1.9-0.8,2.8
			c3.9,0.3,7.7,1.1,11.4,2.2c1.6,0.5,2.7-1.9,1.2-2.7c-2.7-1.4-5.4-2.6-8.3-3.6c-0.3,1-0.5,1.9-0.8,2.9c3.3,0.6,6.4,1.4,9.6,2.7
			c-0.3-0.6-0.7-1.2-1-1.8c0.2-1.2-14.4-5.8-16.2-6.4c-1.6-0.6-2.7,2-1.2,2.7c2.8,1.5,5.7,2.9,8.5,4.4c0.5-0.9,1-1.7,1.5-2.6
			c-2.6-1.1-5.2-2.3-7.9-3.4c-0.4,0.9-0.8,1.8-1.2,2.7c4.1,0.6,7.3,2.2,10.2,5.3c0.5-0.8,1-1.7,1.5-2.5c-3.8-1-7.6-2.1-11.5-3.1
			c-1.9-0.5-2.6,2.2-0.8,2.9c4,1.6,8.1,3.2,12.1,4.8c1.8,0.7,2.5-2.2,0.8-2.9c-5-2.1-10.2-3.7-15.5-4.8c-0.1,1-0.3,2-0.4,2.9
			c5.6,0.2,10.3,2.2,14.4,6c0.6-0.8,1.2-1.6,1.8-2.4c-3.9-1.7-7.9-3.2-12-4.3c-1.7-0.5-2.5,1.8-1.2,2.7c9.6,7.1,23.2,7.1,34.5,5.8
			c13.3-1.6,26-6,38.3-11c1.8-0.7,1-3.6-0.8-2.9c-4.4,1.8-8.8,3.5-13.1,5.3c0.4,0.9,0.8,1.8,1.2,2.7c4.8-2.4,9.7-3.9,15-4.8
			c-0.4-0.9-0.8-1.8-1.2-2.7c-3.8,2-7.8,3.6-12,4.7c-1.9,0.5-1.1,3.4,0.8,2.9c5.2-1.3,10.4-2.5,15.7-3.5c-0.3-1-0.5-1.9-0.8-2.9
			c-4.8,1.4-9.2,3.4-13.4,6.1c-1.3,0.8-0.7,2.7,0.8,2.8c6.6,0.3,12.5-2.3,18.8-3.6c9.5-1.9,15.6,2.5,21.9,9.1
			c1.2,1.3,3.1-0.3,2.4-1.8c-1.5-3.2-3-6.4-4.6-9.6c-0.8,0.6-1.6,1.2-2.4,1.8c5.2,5.4,8.5,11.9,9.4,19.3c1-0.1,2-0.3,2.9-0.4
			c-0.4-2-0.7-4-0.9-6c-0.2-1.9-3.1-1.9-3,0c0.1,2,0.3,4,0.4,5.9c0.9-0.3,1.9-0.5,2.8-0.8c-1.3-2.5-2.1-5-2.7-7.8
			c-1,0.3-1.9,0.5-2.9,0.8c0.8,2.3,1.3,4.4,1.3,6.9c0.9-0.3,1.9-0.5,2.8-0.8c-1.1-2.3-1.4-4.3-1.2-6.8c-1,0.1-2,0.3-2.9,0.4
			c0.6,3.1,1,6.1,1.1,9.2c1-0.1,2-0.3,2.9-0.4c-1.1-2.9-1.8-5.6-2-8.7c-1,0.1-2,0.3-2.9,0.4c0.6,3.3,1.1,6.7,1.5,10
			c0.9-0.3,1.9-0.5,2.8-0.8c-2.2-3.7-3.2-7.4-3.2-11.7c-0.9,0.3-1.9,0.5-2.8,0.8c1.5,3.1,2.4,6.1,2.7,9.5c0.9-0.3,1.9-0.5,2.8-0.8
			c-2.2-3.6-3-7.2-2.7-11.4c-1,0.1-2,0.3-2.9,0.4c0.7,3.5,1,6.9,1,10.5c0.9-0.3,1.9-0.5,2.8-0.8c-1.8-2.7-2.8-5.4-3.3-8.5
			c-1,0.3-1.9,0.5-2.9,0.8c0.9,3.8,1.1,7.4,0.7,11.3c0.9-0.3,1.9-0.5,2.8-0.8c-1.6-2.7-2.4-5.2-2.6-8.4c-1,0.1-2,0.3-2.9,0.4
			c1.3,4.4,2.3,8.9,2.9,13.4c0.8-0.5,1.7-1,2.5-1.5c-2.2-2.6-3-5.3-2.8-8.7c-1,0-2,0-3,0c0.5,3.5,0.9,6.9,1.4,10.4
			c1-0.1,2-0.3,2.9-0.4c-0.6-4.4-2.1-8.4-4.4-12.2c-0.8-1.2-2.9-0.8-2.8,0.8c0.4,11.9,1.8,24.1,0.5,36c-0.7,6.3-2.1,13.2-6.7,18
			c-4.3,4.5-10.4,6.1-16.4,6.4c0.1,1,0.3,2,0.4,2.9c4.9-0.8,9.8-1.6,14.6-2.5c-0.3-1-0.5-1.9-0.8-2.9c-4.1,0.7-8.3,1.4-12.4,2.1
			c0.4,0.9,0.8,1.8,1.2,2.7c3.5-1.8,6.8-2.8,10.7-3.3c-0.1-1-0.3-2-0.4-2.9c-11.4,3.2-22.8,4-34.3,6.2c-1.9,0.4-1.1,3.2,0.8,2.9
			c6.3-1,12.5-2,18.8-3c1.7-0.3,1.3-3-0.4-2.9c-5.2,0.1-10.3,0.1-15.5,0.2c0.1,1,0.3,2,0.4,2.9c5-1.6,10-2.4,15.3-2.3
			c-0.1-1-0.3-2-0.4-2.9c-10.1,2.3-20.3,3.6-30.7,4c0.1,1,0.3,2,0.4,2.9c3.9-0.8,7.6-0.7,11.4,0.3c0.1-1,0.3-2,0.4-2.9
			c-5,0.6-9.9,0.4-14.8-0.7c-1.9-0.4-2.7,2.5-0.8,2.9c3.2,0.7,6.2,1,9.4,0.8c1.8-0.1,2-2.3,0.4-2.9c-2.7-1.1-5.2-1.4-8.1-1.1
			c-1.9,0.2-2,3.1,0,3c4.6-0.2,9.1,0,13.7,0.5c1.7,0.2,2.1-2.7,0.4-2.9c-5.7-0.8-11.5-1.5-17.2-1.9c-1.9-0.2-1.9,2.8,0,3
			c5.3,0.6,10.6,0.7,16,0.2c1.9-0.2,1.9-3.1,0-3c-7.4,0.5-14.9,0.8-22.3,0.9c-6.8,0-16.4,1.3-22.7-1.5c-0.3,0.9-0.5,1.9-0.8,2.8
			c3,0.1,5.9,0.4,8.9,0.9c1.5,0.3,2.8-2,1.2-2.7c-2-0.9-4-1.6-6.2-2.2c-0.1,1-0.3,2-0.4,2.9c4.8-0.2,9.2,0.5,13.8,2.2
			c1.6,0.6,2.7-2,1.2-2.7c-3.4-1.6-6.9-3.1-10.5-4.3c-0.1,1-0.3,2-0.4,2.9c4.5-0.5,8.7-0.2,13.1,0.9
			C91.7,191.2,92.5,188.3,90.6,187.8L90.6,187.8z"/>
	</g>
</g>
<g>
	<g>
		<path class="st0" d="M44.9,101.5c-13.2,4-17.1,21.3-18.7,33.2c-1.7,12.4-3.8,30.1,6.5,39.5c1.4,1.3,3.5-0.8,2.1-2.1
			c-9.1-8.3-7.1-24.1-5.9-35.2c1.2-11,4.4-28.8,16.7-32.5C47.6,103.8,46.8,100.9,44.9,101.5L44.9,101.5z"/>
	</g>
</g>
<g>
	<g>
		<path class="st0" d="M26.1,131.5c-3.4,9.1-3.2,18.6-2.5,28.2c0.5,7.5,1.1,15.6,7.5,20.6c1.5,1.2,3.6-0.9,2.1-2.1
			c-6.7-5.2-6.4-14.3-6.8-22c-0.4-8.1-0.2-16.1,2.6-23.9C29.7,130.5,26.8,129.7,26.1,131.5L26.1,131.5z"/>
	</g>
</g>
<g>
	<g>
		<path class="st0" d="M27.7,136c0.9-8.1,3.2-16.3,10.1-21.2c1.6-1.1,0.1-3.7-1.5-2.6c-7.9,5.7-10.6,14.5-11.6,23.8
			C24.5,137.9,27.5,137.9,27.7,136L27.7,136z"/>
	</g>
</g>
<g>
	<g>
		<path class="st0" d="M26.8,142c0.8-6.8,2.4-14.9,6.7-20.5c1.2-1.5-0.9-3.6-2.1-2.1c-4.9,6.3-6.6,14.8-7.5,22.6
			C23.5,143.9,26.5,143.9,26.8,142L26.8,142z"/>
	</g>
</g>
<g>
	<g>
		<path class="st0" d="M34.8,109.2c-5.6,8.4-9.1,19.3-8.5,29.4c0.1,1.9,3.1,1.9,3,0c-0.6-9.6,2.7-19.9,8-27.9
			C38.4,109.1,35.8,107.6,34.8,109.2L34.8,109.2z"/>
	</g>
</g>
<g>
	<g>
		<path class="st0" d="M33.8,110.7c-4.1,7.9-6.9,16.2-8.3,25c-0.3,1.9,2.6,2.7,2.9,0.8c1.4-8.6,4-16.6,8-24.3
			C37.3,110.6,34.7,109,33.8,110.7L33.8,110.7z"/>
	</g>
</g>
<g>
	<g>
		<path class="st0" d="M34.4,110.2c-3,4.8-5.1,10.1-6,15.7c-0.3,1.9,2.6,2.7,2.9,0.8c0.9-5.4,2.7-10.4,5.6-15
			C38.1,110,35.5,108.5,34.4,110.2L34.4,110.2z"/>
	</g>
</g>
<g>
	<g>
		<path class="st0" d="M31.3,123.2c1.1-3.5,2.9-6.6,5.4-9.3c1.3-1.4-0.8-3.5-2.1-2.1c-2.8,3.1-4.9,6.6-6.2,10.6
			C27.9,124.2,30.8,125,31.3,123.2L31.3,123.2z"/>
	</g>
</g>
<g>
	<g>
		<path class="st0" d="M30.7,123.8c1.4-4.1,3.4-7.8,6.1-11.2c1.2-1.5-0.9-3.6-2.1-2.1c-3,3.8-5.3,7.9-6.9,12.5
			C27.2,124.9,30.1,125.6,30.7,123.8L30.7,123.8z"/>
	</g>
</g>
<g>
	<g>
		<path class="st0" d="M26.8,141.7c0.2-5.3,1.5-10.2,4-14.8c0.9-1.7-1.7-3.2-2.6-1.5c-2.8,5.1-4.3,10.5-4.5,16.3
			C23.8,143.6,26.8,143.6,26.8,141.7L26.8,141.7z"/>
	</g>
</g>
<g>
	<g>
		<path class="st0" d="M31.6,121.1c1.4-3.3,3.5-6.1,6.2-8.5c1.5-1.3-0.7-3.4-2.1-2.1c-2.9,2.5-5.2,5.6-6.7,9.1
			C28.3,121.3,30.9,122.9,31.6,121.1L31.6,121.1z"/>
	</g>
</g>
<g>
	<g>
		<path class="st0" d="M32,120.4c1.2-4.2,3.7-7.9,7.2-10.4c1.5-1.1,0.1-3.7-1.5-2.6c-4.2,3.1-7.2,7.2-8.6,12.2
			C28.6,121.5,31.5,122.3,32,120.4L32,120.4z"/>
	</g>
</g>
<g>
	<g>
		<path class="st0" d="M56.2,103.3c0,0-0.1,0-0.1-0.1c-0.7-0.4-1.6-0.2-2.1,0.5c-0.4,0.7-0.2,1.7,0.5,2.1c0,0,0.1,0,0.1,0.1
			c0.7,0.4,1.6,0.2,2.1-0.5C57.1,104.7,56.9,103.7,56.2,103.3L56.2,103.3z"/>
	</g>
</g>
<g>
	<g>
		<path class="st0" d="M56.4,103.6C56.4,103.5,56.4,103.5,56.4,103.6c-0.6-0.6-1.6-0.6-2.2-0.1c-0.6,0.6-0.6,1.5,0,2.1
			c0,0,0,0,0.1,0.1c0.6,0.6,1.5,0.6,2.1,0C57,105.1,57,104.1,56.4,103.6L56.4,103.6z"/>
	</g>
</g>
<g>
	<g>
		<path class="st0" d="M56.3,102.8c-2.1-1-4.3-1.5-6.7-1.6c-1.9-0.1-1.9,2.9,0,3c1.8,0.1,3.5,0.5,5.2,1.2
			C56.5,106.2,58,103.6,56.3,102.8L56.3,102.8z"/>
	</g>
</g>
<g>
	<g>
		<path class="st0" d="M56.6,104.4c0-0.1,0-0.1,0.1-0.2c0.2-0.6-0.1-1.4-0.7-1.7c-1.2-0.7-2.5-1-3.9-1.2c-0.8-0.1-1.5,0.8-1.5,1.5
			c0,0.9,0.7,1.4,1.5,1.5c0.8,0.1,1.6,0.4,2.4,0.8c-0.2-0.6-0.5-1.1-0.7-1.7c0,0.1,0,0.1-0.1,0.2c-0.2,0.8,0.3,1.6,1,1.8
			C55.5,105.7,56.3,105.2,56.6,104.4L56.6,104.4z"/>
	</g>
</g>
<g>
	<g>
		<path class="st0" d="M55.9,102.4c-2.9-1.7-6.5-3.6-9.5-1.1c-1.5,1.3,0.7,3.4,2.1,2.1c1.6-1.4,4.4,0.7,5.8,1.5
			C56,106,57.5,103.4,55.9,102.4L55.9,102.4z"/>
	</g>
</g>
<g>
	<g>
		<path class="st0" d="M68.9,174.4c9.2,1.1,18.1,4.1,27,6.7c4.1,1.2,8.2,2.3,12.1,4.1c3.8,1.7,6.2,2,10.3,2.6
			c1.9,0.3,2.7-2.6,0.8-2.9c-8.3-1.2-16.1-4.8-24.3-7.2c-8.6-2.5-17.1-5.2-26-6.3C67,171.2,67,174.2,68.9,174.4L68.9,174.4z"/>
	</g>
</g>
</svg>
