<?xml version="1.0" encoding="utf-8"?>
<!-- Generator: Adobe Illustrator 22.0.1, SVG Export Plug-In . SVG Version: 6.00 Build 0)  -->
<svg version="1.1" id="Слой_1" xmlns="http://www.w3.org/2000/svg" xmlns:xlink="http://www.w3.org/1999/xlink" x="0px" y="0px"
	 viewBox="0 0 300 100" style="enable-background:new 0 0 300 100;" xml:space="preserve">
<g>
	<g>
		<path d="M13.8,13.4c-0.4-1.2-0.7-2.3-1.1-3.5c-0.7-2.3-4.8-2-4.4,0.6c1.7,12.7,3.4,25.4,5.1,38.1c0.8,6.2,1.6,12.4,2.5,18.6
			c0.4,3.3,0.9,6.5,1.3,9.8c0.5,3.4,1.6,7.4-0.1,10.6c-1.3,2.6,2.6,4.9,3.9,2.3c2.7-5.3,0.9-11.2,0.2-16.8
			c-0.9-6.8-1.8-13.7-2.7-20.5c-1.9-14-3.7-28-5.6-42c-1.5,0.2-2.9,0.4-4.4,0.6c0.4,1.2,0.7,2.3,1.1,3.5
			C10.4,17.3,14.7,16.2,13.8,13.4L13.8,13.4z"/>
	</g>
</g>
<g>
	<g>
		<path d="M8.5,17c6.4-3,13.1-5.2,20-6.4c3.5-0.6,7.1-1,10.7-1c1.8,0,4.6-0.2,6.2,0.4c2.7,1,4.4,4.4,2.3,6.9
			c-4.1,5-10.8,8.7-16,12.5c-6.3,4.6-12.6,9.3-18.9,13.9c-2.3,1.7-0.1,5.6,2.3,3.9c9.2-6.8,18.3-13.5,27.5-20.3
			c4.7-3.5,13.6-9.1,11.4-16.2c-2.1-7-14.8-5.7-20.1-5.2c-9.7,0.9-19,3.6-27.8,7.7C3.6,14.4,5.9,18.2,8.5,17L8.5,17z"/>
	</g>
</g>
<g>
	<g>
		<path d="M18.6,47.2c8.6-7.5,20-10.3,31.2-11.5c6.6-0.7,39.7-2.5,34.5,10.4C81.9,52,74.6,55.9,69.4,59c-5.3,3.1-10.7,5.9-16.2,8.6
			c-11.8,5.6-24,10.2-36.4,14.3c-2.7,0.9-1.6,5.2,1.2,4.3c15.4-5,30.5-10.9,44.8-18.4c8-4.2,31.3-14.9,26-27.6
			c-2.3-5.5-10-7.6-15.3-8.6c-7.1-1.3-14.4-1.1-21.5-0.6c-13.2,1.1-26.5,4.1-36.7,13C13.2,45.9,16.4,49.1,18.6,47.2L18.6,47.2z"/>
	</g>
</g>
<g>
	<g>
		<path d="M91.4,72.3c4.2-3,16.4-10.5,10.9-16.9c-5.3-6.1-14.2-0.2-16.9,5.3C82,67.6,82.1,77.9,88.7,83c6.5,4.9,16.1,3.7,22.5-0.8
			c2.3-1.7,0.1-5.6-2.3-3.9c-8.2,5.9-21.1,3.9-21.2-8c-0.1-4.3,2.5-13.5,8.4-12.6c4.5,0.6,1.8,3.5-0.3,5.4c-2.1,1.9-4.4,3.6-6.7,5.3
			C86.8,70,89.1,73.9,91.4,72.3L91.4,72.3z"/>
	</g>
</g>
<g>
	<g>
		<path d="M118.2,17.9c0.6-2.3,0.6-3.9-0.2-6.1c-0.9-2.8-4.8-1.6-4.3,1.2c4.1,23.6,5.7,47.4,4.9,71.3c-0.1,2.9,4.4,2.9,4.5,0
			c0.8-24.3-0.9-48.6-5.1-72.5c-1.4,0.4-2.9,0.8-4.3,1.2c0.1,1.2,0.1,2.4,0.2,3.7C113.2,19.5,117.5,20.7,118.2,17.9L118.2,17.9z"/>
	</g>
</g>
<g>
	<g>
		<path d="M139.8,18.9c0.6-2.3,0.6-3.9-0.2-6.1c-0.9-2.8-4.8-1.6-4.3,1.2c4.1,23.6,5.7,47.4,4.9,71.3c-0.1,2.9,4.4,2.9,4.5,0
			c0.8-24.3-0.9-48.6-5.1-72.5c-1.4,0.4-2.9,0.8-4.3,1.2c0.1,1.2,0.1,2.4,0.2,3.7C134.8,20.5,139.1,21.7,139.8,18.9L139.8,18.9z"/>
	</g>
</g>
<g>
	<g>
		<path d="M150.8,41.8c-5.6,8.5-9.6,19.4-8.2,29.7c0.6,4.2,2.3,8,5.5,10.8c3.9,3.3,9.2,4.3,12.9,7.9c2.1,2,5.3-1.2,3.2-3.2
			c-6.1-5.9-15.7-6.2-17.1-16.2c-1.3-9.4,2.5-19.2,7.6-26.8C156.3,41.7,152.4,39.4,150.8,41.8L150.8,41.8z"/>
	</g>
</g>
<g>
	<g>
		<path d="M182.6,49c-11.6-1.9-17.6,9.3-15.2,19.5c1.2,4.9,3.5,9.8,8.3,12c5.4,2.5,11.6,1.2,16.7-1.3c9.2-4.5,12.2-16.2,3.5-23
			c-7.1-5.6-22.3-5.6-25.1,4.8c-0.8,2.8,3.6,4,4.3,1.2c1.9-6.9,12.7-6.1,17.3-3c7.4,4.9,4,13.3-2.9,16.3c-7.5,3.3-14.7,1.9-17.3-6.5
			c-2.1-6.7,0-17.2,9.2-15.7C184.3,53.9,185.5,49.5,182.6,49L182.6,49z"/>
	</g>
</g>
<g>
	<g>
		<path d="M204.1,6.9c1.5,0,3.1,17.1,3.4,19c1,6.8,2.1,13.6,3.1,20.5c2,13.3,4,26.6,6,39.9c0.4,2.9,4.8,1.6,4.3-1.2
			c-2.4-15.9-4.8-31.8-7.2-47.7c-1.2-7.8-2.3-15.6-3.5-23.4c-0.6-4.2-0.4-11.4-6.1-11.6C201.2,2.3,201.2,6.8,204.1,6.9L204.1,6.9z"
			/>
	</g>
</g>
<g>
	<g>
		<path d="M202.4,14.5c4.1,1.6,8.5,0.7,12.7,0.3c5.1-0.5,10.1-1.2,15.1-1.9c8.8-1.4,18.7-2.3,26.3-7.3c2-1.3,0.8-4.9-1.7-4.1
			c-6.4,2.1-10.9,7.3-10.8,14.2c0,2.9,4.5,2.9,4.5,0c0-4.8,3-8.4,7.5-9.8c-0.6-1.4-1.2-2.7-1.7-4.1C247.6,6.1,238.7,7,231,8.3
			c-4.6,0.8-9.2,1.4-13.9,1.9c-4.2,0.5-9.4,1.6-13.5,0.1C200.9,9.1,199.7,13.5,202.4,14.5L202.4,14.5z"/>
	</g>
</g>
<g>
	<g>
		<path d="M214.6,45.7c0-0.1,0-0.2,0-0.3c-0.2,0.5-0.4,1.1-0.7,1.6c0,0,1.8-0.1,1.8-0.1c0.8-0.1,1.6-0.2,2.4-0.3
			c1.6-0.2,3.1-0.4,4.7-0.6c2.8-0.3,2.9-4.8,0-4.5c-2.9,0.3-5.8,0.7-8.6,1c-2.1,0.3-3.9,0.8-4.1,3.2
			C209.7,48.6,214.2,48.5,214.6,45.7L214.6,45.7z"/>
	</g>
</g>
<g>
	<g>
		<path d="M238.7,17.9c1.5,0,3.1,17.1,3.4,19c1,6.8,2.1,13.6,3.1,20.5c2,13.3,4,26.6,6,39.9c0.4,2.9,4.8,1.6,4.3-1.2
			c-2.4-15.9-4.8-31.8-7.2-47.7c-1.2-7.8-2.3-15.6-3.5-23.4c-0.6-4.2-0.4-11.4-6.1-11.6C235.8,13.3,235.8,17.8,238.7,17.9
			L238.7,17.9z"/>
	</g>
</g>
<g>
	<g>
		<path d="M237,25.5c4.1,1.6,8.5,0.7,12.7,0.3c5.1-0.5,10.1-1.2,15.1-1.9c8.8-1.4,18.7-2.3,26.3-7.3c2-1.3,0.8-4.9-1.7-4.1
			c-6.4,2.1-10.9,7.3-10.8,14.2c0,2.9,4.5,2.9,4.5,0c0-4.8,3-8.4,7.5-9.8c-0.6-1.4-1.2-2.7-1.7-4.1c-6.7,4.4-15.6,5.3-23.3,6.6
			c-4.6,0.8-9.2,1.4-13.9,1.9c-4.2,0.5-9.4,1.6-13.5,0.1C235.5,20.1,234.3,24.5,237,25.5L237,25.5z"/>
	</g>
</g>
<g>
	<g>
		<path d="M249.2,56.7c0-0.1,0-0.2,0-0.3c-0.2,0.5-0.4,1.1-0.7,1.6c0,0,1.8-0.1,1.8-0.1c0.8-0.1,1.6-0.2,2.4-0.3
			c1.6-0.2,3.1-0.4,4.7-0.6c2.8-0.3,2.9-4.8,0-4.5c-2.9,0.3-5.8,0.7-8.6,1c-2.1,0.3-3.9,0.8-4.1,3.2
			C244.3,59.6,248.8,59.5,249.2,56.7L249.2,56.7z"/>
	</g>
</g>
<g>
	<g>
		<path d="M12.1,16.2c4-1.5,31.7-9.1,26.6,2.5c-1.5,3.5-6.6,7-9.2,9.6c-3,2.8-5.9,5.6-8.5,8.8c-1.9,2.2,1.3,5.4,3.2,3.2
			c4.5-5.4,10-9.8,14.8-14.9c3.1-3.3,6.7-7.3,4.5-12c-5.1-10.9-24.6-4.5-32.5-1.4C8.3,12.9,9.4,17.2,12.1,16.2L12.1,16.2z"/>
	</g>
</g>
<g>
	<g>
		<path d="M39.4,27.3c4.4-4.1,10.1-8,7.5-14.9C45.6,9,39.3,3.4,36.3,7.7c-0.7,1-0.1,2.5,0.8,3.1c1,0.6,7.3,1.7,4.9,4
			c1.3,0.5,2.6,1.1,3.8,1.6c0.4-3.6-0.8-6.7-3.4-9.2c-1.3-1.3-4-0.4-3.8,1.6c0.1,1.5,0.4,2.1,1.4,3.3c0.7,0.8,1.6,1.6,2,2.7
			c0.5,1.6,0.8-0.7,0,1.7c-0.6,1.9-1.4,3.8-2.8,5.2c-1.4,1.4-3.1,2.5-4.6,4c-2,2.1,1,5,3.2,3.2c4.4-3.5,21.4-16.2,10.5-22
			C46.7,6,45,7.1,44.9,8.8c-0.1,1.7,0,3.4,0.2,5.1c1.4-0.4,2.8-0.8,4.2-1.1c-0.6-1-1-2-1.2-3.2c-1.4,0.4-2.9,0.8-4.3,1.2
			c0.6,1.5,0.7,3,1.4,4.4c1.3,2.4,4.5,0.6,4.1-1.7c-0.3-1.9-0.9-3.6-1.9-5.3c-1.1-1.9-4.3-1.1-4.2,1.1c0.1,1.9,0.6,3.2,1.4,4.9
			c1.3-0.8,2.6-1.5,3.9-2.3c-0.7-1.4-1.5-2.7-2.2-4.1c-1.2-2.2-5-0.7-4.1,1.7c0.5,1.5,2.9,4.7,1.4,6c-2.3,1.8,0.9,5,3.2,3.2
			c3.9-3.1,1-6.7-0.2-10.3c-1.4,0.6-2.7,1.2-4.1,1.7c0.7,1.4,1.5,2.7,2.2,4.1c1.4,2.6,5.2,0.3,3.9-2.3c-0.3-0.9-0.5-1.8-0.8-2.6
			c-1.4,0.4-2.8,0.8-4.2,1.1c0.8,1.5,1.2,2.6,1.4,4.2c1.4-0.6,2.7-1.2,4.1-1.7c-0.5-1-0.6-2.3-1-3.3c-1-2.6-5.1-1.7-4.3,1.2
			c0.4,1.5,0.9,2.8,1.7,4.2c1,1.9,4.4,1.1,4.2-1.1c-0.2-1.7-0.2-3.4-0.2-5.1c-1.1,0.6-2.3,1.3-3.4,1.9c4.1,2.1-2.8,7-4.3,8.5
			c-2.3,2.2-4.6,4.4-7.1,6.4c1.1,1.1,2.1,2.1,3.2,3.2c1.6-1.7,3.5-2.8,5.1-4.5c1.6-1.7,2.2-3.8,3.1-5.9c0.8-1.7,1.4-2.5,0.7-4.3
			c-0.5-1.5-3.5-4.1-3.7-5.4c-1.3,0.5-2.6,1.1-3.8,1.6c1.8,1.7,2.4,3.6,2.1,6c-0.3,2.1,2.6,2.8,3.8,1.6c1.9-1.8,1.9-4.6,0.9-6.9
			c-0.5-1.1-1.3-2-2.3-2.7c-1.3-0.9-3.2-0.6-4.4-1.4c0.3,1,0.5,2.1,0.8,3.1c0.1-0.1,0.2-0.2,0.3-0.4c-0.6,0.4-1.3,0.7-1.9,1.1
			c3.9-0.3,5.3,4.8,3.8,7.6c-1.3,2.4-4.2,3.9-6.1,5.8C34.1,26.1,37.3,29.3,39.4,27.3L39.4,27.3z"/>
	</g>
</g>
<g>
	<g>
		<path d="M17.4,44.4c2.9-2.3,5.9-4.5,8.9-6.6c2.4-1.6,0.1-5.5-2.3-3.9c-3.4,2.3-6.6,4.7-9.8,7.3C11.9,43,15.1,46.2,17.4,44.4
			L17.4,44.4z"/>
	</g>
</g>
<g>
	<g>
		<path d="M22,41.2c2.9-2.7,5.9-5.3,9-7.6c2.3-1.7,0-5.6-2.3-3.9c-3.5,2.6-6.8,5.4-9.9,8.3C16.7,40,19.9,43.2,22,41.2L22,41.2z"/>
	</g>
</g>
<g>
	<g>
		<path d="M48.2,36c7.6-1,26.8,3.9,20.9,15.1c-4.5,8.5-12.9,12.5-20.2,18.1c-2.3,1.7,0,5.6,2.3,3.9C56.5,69,62.5,66,67.2,61
			c3.5-3.7,7.8-8.8,7.6-14.2c-0.4-11.5-17.3-16.6-26.6-15.3C45.4,31.8,45.3,36.3,48.2,36L48.2,36z"/>
	</g>
</g>
<g>
	<g>
		<path d="M64.2,36.3c2.7,0.2,5.4,0.5,8.1,0.8c1.7,0.2,5.3,0.2,6.7,1.2c-0.2-1.2-0.3-2.4-0.5-3.5C77,36.7,75,36.5,73.7,39
			c-0.8,1.6,0.5,4,2.5,3.3c1.5-0.5,3.1-1.1,4.6-1.6c-0.7-1.3-1.5-2.5-2.2-3.8c-1.7,2.1-6.4,4.6-6,7.8c0.4,3.3,3.5,2.3,5.7,2.5
			c-0.5-1.3-1.1-2.6-1.6-3.8c-1.7,1.7-5.9,4.3-5.6,7.2c0.3,2.7,3.1,2.6,5.1,2.5c-0.6-1.1-1.3-2.3-1.9-3.4c-1.2,1.9-3.1,3.2-4.4,5.1
			c-1.6,2.2-4.2,4.7-6.8,5.9c0.8,1.3,1.5,2.6,2.3,3.9c6.6-4.1,18.6-10.5,17.8-19.6c-0.1-1.6-1.9-3-3.4-1.9c-3.6,2.4-5.2,6.6-9.1,8.9
			c1,1,2.1,2.1,3.1,3.1c0.4-0.9,0.9-1.8,1.7-2.5c-1.1-1.1-2.1-2.1-3.2-3.2c-0.9,1.2-1.3,1.8-1.8,3.3c-0.6,1.9,1.7,3.5,3.3,2.5
			c0.8-0.5,1.7-1,2.6-1.4c-0.7-0.2-1.5-0.4-2.2-0.6c-0.8-0.9-0.6-0.6-0.6,0.4c0,1.1,0.7,1.8,1.7,2.2c4.1,1.7,8.4-4.3,9.4-7.6
			c1.2-3.8,0.4-9.9-4.1-11.2c-0.7-0.2-1.7,0-2.2,0.6c-2.5,3-0.8,6.8-4.4,9.5c1.1,0.4,2.2,0.9,3.3,1.3c-1-3.5-0.6-6.8-2.6-9.9
			c-1.6-2.5-3.6-5.6-6.6-6.3c-2-0.5-4,2.3-2.2,3.8c1.4,1.2,2.9,2.4,4.3,3.6c0.9-1.2,1.8-2.4,2.7-3.5c-1.9-1-3.8-2-5.6-3
			c-2.2-1.2-4.7,1.8-2.7,3.5c1.4,1.2,2.8,2.2,4.4,3.2c0.8-1.3,1.5-2.6,2.3-3.9c-1-0.4-1.8-1-2.5-1.8c-0.7,1.3-1.5,2.5-2.2,3.8
			c1.8,0.5,3.7,0.9,5.5,1.4c0.6,0.2,1.2,0.3,1.8,0.5c1.8,1,2.3,0.7,1.5-0.9c0.5-0.5,1-1,1.6-1.6c0.1,0-3.5-2.2-3.9-2.4
			c-2.2-0.7-3.8,2.2-2.2,3.8c2.2,2.2,6.3,3.6,6.5,6.9c0.1,1.7,2.5,3.2,3.8,1.6c1.3-1.7,1.2-3.4,2.3-5.2c-1.4-0.4-2.8-0.8-4.2-1.1
			c0.3,2.2,0.7,3.7,1.9,5.5c1.2-0.9,2.4-1.8,3.5-2.7c0,0,0,0.1,0.1,0.1c-1.4,0.4-2.8,0.8-4.2,1.1c0.6,0.9,1,1.8,1.2,2.9
			c1.4-0.4,2.9-0.8,4.3-1.2c-0.4-0.9,0.5-3.1,0.4-4.2c-0.1-1.3-0.3-3.3-1.2-4.3c-1.2-1.4-2.7-1.5-4.1-0.3C81,38,80.9,39,81,39.7
			c0.2,1.2,1.1,2.1,2,2.9c1.8,1.8,4.9-0.5,3.5-2.7c-1.2-1.9-3.7-4.7-6.2-2.8c-0.9,0.7-1.2,1.4-1,2.5c0,0.2,0,0.3,0.1,0.5
			c0.4,2.9,4.7,1.6,4.3-1.2c0-0.2,0-0.3-0.1-0.5c-0.3,0.8-0.7,1.7-1,2.5c0,0.4,0,0.8,0,1.2c1.2-0.9,2.4-1.8,3.5-2.7
			c-0.3-0.3-0.5-0.6-0.8-0.9c-0.2,0.7-0.4,1.5-0.6,2.2c0.1-0.1,0.2-0.1,0.2-0.2c-0.7,0.2-1.5,0.4-2.2,0.6c-0.8-0.2-1.2,5.4-0.7,6.5
			c1.1,2.6,5.1,1.7,4.3-1.2c-0.4-1.5-0.9-2.7-1.7-4c-1.1-1.8-4.4-1.2-4.2,1.1c0.1,1.4,0.4,2,1.3,3.1c1.6,2,5-0.6,3.5-2.7
			c-0.4-1.1-0.9-2.1-1.3-3.2c-0.3-2.1-2.9-3.2-4.2-1.1c-0.8,1.3-0.7,3.2-1.6,4.3c1.3,0.5,2.6,1.1,3.8,1.6c-0.1-1.7,0.1-3.6-0.9-5
			c-1.5-2.2-4.9-3.2-6.9-5c-0.7,1.3-1.5,2.5-2.2,3.8c2.7,0.9,3.3,3.3,6.3,2.4c0.7-0.2,1.5-0.8,1.6-1.6c0.8-5.4-8.5-5.6-12-6.4
			c-2.1-0.5-3.8,2.1-2.2,3.8c1,1,2.1,1.8,3.4,2.5c2.5,1.4,4.7-2.4,2.3-3.9c-1.3-0.7-2.4-1.6-3.5-2.5c-0.9,1.2-1.8,2.4-2.7,3.5
			c1.9,1,3.8,2,5.6,3c2.1,1.2,4.8-1.8,2.7-3.5c-1.4-1.2-2.9-2.4-4.3-3.6c-0.7,1.3-1.5,2.5-2.2,3.8c2.4,0.6,4.7,5.4,5,7.3
			c0.4,2,0.5,3.8,1.1,5.9c0.4,1.3,2.1,2.2,3.3,1.3c1.7-1.2,3-2.4,4-4.3c0.8-1.5,0.5-4.8,1.4-5.9c-0.7,0.2-1.5,0.4-2.2,0.6
			c1.9,0.5,1.2,4.9,0.7,6c-0.3,0.8-2.5,4.5-3.7,4.1c0.6,0.7,1.1,1.4,1.7,2.2c-0.1-1.6,0.5-2.2-0.8-3.6c-0.5-0.6-1.4-0.8-2.2-0.6
			c-1.3,0.4-2.4,1.2-3.6,1.9c1.1,0.8,2.2,1.7,3.3,2.5c0.2-0.4,0.4-0.9,0.6-1.3c1.7-2.2-1.2-5.4-3.2-3.2c-1,1.1-1.7,2.1-2.4,3.4
			c-1,1.9,1,4.3,3.1,3.1c2-1.2,3.7-2.5,5.2-4.1c1.3-1.4,2.3-3.6,3.8-4.7c-1.1-0.6-2.3-1.3-3.4-1.9c0.5,6.8-10.7,12.6-15.6,15.7
			c-2.5,1.5-0.3,5.1,2.3,3.9c2.7-1.3,5.7-3.8,7.6-6c1-1.2,1.5-2.5,2.6-3.6c1-1,1.9-1.8,2.7-3c0.9-1.4-0.3-3.5-1.9-3.4
			c-1.6,0.5-2.2,0.5-1.7,0c0.4,0.6,0.7,1.3,1.1,1.9c0-0.5,3.7-3.5,4.3-4c1.5-1.5,0.3-3.6-1.6-3.8c-0.1,0-2.3,0.1-2.3,0
			c0.4,0.6,0.7,1.3,1.1,1.9c0-0.8,4-3.9,4.7-4.7c1.3-1.6,0.1-4.6-2.2-3.8c-1.5,0.5-3.1,1.1-4.6,1.6c0.8,1.1,1.7,2.2,2.5,3.3
			c1-2,2.9-1.8,4.1-3.2c1-1.2,0.8-2.6-0.5-3.5c-1.9-1.4-5.5-1.3-7.8-1.7c-3.1-0.4-6.2-0.8-9.3-1C61.3,31.6,61.3,36.1,64.2,36.3
			L64.2,36.3z"/>
	</g>
</g>
<g>
	<g>
		<path d="M56.6,64.5c-6.7,3.2-13.1,7-19.7,10.3c-6.4,3.2-13.3,5-19.6,8.3c-2.6,1.4-0.3,5.2,2.3,3.9c6.2-3.3,13.3-5.1,19.6-8.3
			c6.6-3.4,13-7.1,19.7-10.3C61.5,67.1,59.2,63.2,56.6,64.5L56.6,64.5z"/>
	</g>
</g>
<g>
	<g>
		<path d="M15.5,84.7C15.5,84.7,15.5,84.7,15.5,84.7c0,1.3,1,2.4,2.3,2.3c1.2-0.1,2.3-1,2.3-2.3c0,0,0-0.1,0-0.1
			c0-1.2-1-2.3-2.3-2.3C16.6,82.5,15.5,83.4,15.5,84.7L15.5,84.7z"/>
	</g>
</g>
<g>
	<g>
		<path d="M9.9,15.8c1,3.7,1.9,7.4,2.4,11.2c0.5,3.6,2,10.2,0.3,13.7c-1.3,2.6,2.6,4.9,3.9,2.3c1.9-3.9,1.1-8.6,0.7-12.8
			c-0.6-5.3-1.6-10.4-3-15.5C13.5,11.8,9.2,13,9.9,15.8L9.9,15.8z"/>
	</g>
</g>
<g>
	<g>
		<path d="M14.9,47.4c3.3,11.2,4.9,24.4,3.7,36.1c-0.3,2.9,4.2,2.9,4.5,0c1.2-11.9-0.5-25.7-3.9-37.2C18.4,43.4,14.1,44.6,14.9,47.4
			L14.9,47.4z"/>
	</g>
</g>
<g>
	<g>
		<path d="M101.6,61.8c0.1-2-0.3-3.8-1.9-5.1c-1.4-1.2-3.3-1.8-5.1-2.1c-1.2-0.2-2.4,0.3-2.8,1.6c-0.3,1.1,0.4,2.6,1.6,2.8
			c1.1,0.2,2.1,0.4,3,1c0.8,0.5,0.7,1,0.6,1.9C97,63,98.2,64,99.3,64C100.6,64,101.5,63,101.6,61.8L101.6,61.8z"/>
	</g>
</g>
<g>
	<g>
		<path d="M98.6,66.5c1.7-2,2.7-4.4,2.5-7c-0.1-1.2-1-2.3-2.3-2.3c-1.2,0-2.3,1-2.3,2.3c0.1,1.4-0.3,2.8-1.2,3.9
			c-0.8,0.9-0.9,2.3,0,3.2C96.2,67.3,97.8,67.4,98.6,66.5L98.6,66.5z"/>
	</g>
</g>
<g>
	<g>
		<path d="M93.6,54.7C92.3,55,91.1,55.4,90,56c-1,0.5-1.4,2.1-0.8,3.1c0.7,1.1,2,1.4,3.1,0.8c0.1,0,0.8-0.4,0.4-0.2
			c0.2-0.1,0.4-0.2,0.6-0.2c0.5-0.2,1-0.3,1.5-0.3c1.2-0.2,1.9-1.7,1.6-2.8C96,55.1,94.8,54.5,93.6,54.7L93.6,54.7z"/>
	</g>
</g>
<g>
	<g>
		<path d="M89,56.8c-0.5,0.4-1,0.8-1.5,1.3c-0.9,0.7-0.8,2.4,0,3.2c1,0.9,2.2,0.8,3.2,0c0.5-0.4,1-0.8,1.5-1.3
			c0.9-0.7,0.8-2.4,0-3.2C91.2,55.9,90,56,89,56.8L89,56.8z"/>
	</g>
</g>
<g>
	<g>
		<path d="M151.2,42.9c-1.2,1.3-2.3,2.7-3.3,4.1c-0.7,1-0.2,2.5,0.8,3.1c1.1,0.7,2.4,0.2,3.1-0.8c0.8-1.1,1.6-2.1,2.6-3.2
			c0.8-0.9,0.9-2.3,0-3.2C153.6,42.1,152,42,151.2,42.9L151.2,42.9z"/>
	</g>
</g>
<g>
	<g>
		<path d="M153.4,41.3C153.4,41.3,153.4,41.3,153.4,41.3c-1.3,0-2.4,1-2.3,2.3c0.1,1.2,1,2.3,2.3,2.3c0,0,0.1,0,0.1,0
			c1.2,0,2.3-1,2.3-2.3C155.6,42.3,154.7,41.3,153.4,41.3L153.4,41.3z"/>
	</g>
</g>
<g>
	<g>
		<path d="M155.3,45c0.7-1,0.7-2.5-0.2-3.4c-0.8-0.8-2.2-1.1-3.2-0.4c-0.5,0.4-0.9,0.7-1,1.3c-0.1,0.5-0.1,1.3,0.2,1.7
			c0.6,0.9,2.1,1.6,3.1,0.8c-0.1,0-0.2,0.1-0.4,0.1c-0.4,0-0.8,0-1.2,0c-0.3-0.3-0.7-0.5-1-0.8c-0.1-0.4-0.2-0.8-0.3-1.1
			c0.3-0.7,0.3-0.9,0.1-0.5c-0.6,1-0.2,2.5,0.8,3.1C153.3,46.4,154.6,46,155.3,45L155.3,45z"/>
	</g>
</g>
<g>
	<g>
		<path d="M164.4,85.7c-1.8-1.4-3.8-2.5-6-3.1c-2.8-0.8-4,3.5-1.2,4.3c1.4,0.4,2.8,1.1,4,2c1,0.7,2.2,0.9,3.2,0
			C165.2,88.1,165.4,86.5,164.4,85.7L164.4,85.7z"/>
	</g>
</g>
<g>
	<g>
		<path d="M163.2,85.8c-0.1,0-0.1,0-0.2,0c-1.2,0-2.3,1-2.3,2.3c0.1,1.2,1,2.3,2.3,2.3c0.1,0,0.1,0,0.2,0c1.2,0,2.3-1,2.3-2.3
			C165.4,86.9,164.4,85.8,163.2,85.8L163.2,85.8z"/>
	</g>
</g>
<g>
	<g>
		<path d="M164.3,90.2c0.6-0.7,1-1.5,1-2.4c-0.1-1.2-1-2.3-2.3-2.3c-1.2,0.1-2.3,1-2.3,2.3c0,0.3,0,0.2,0.1-0.2
			c0-0.2,0.1-0.4,0.3-0.6c-0.8,0.9-0.9,2.3,0,3.2C162,91,163.5,91.1,164.3,90.2L164.3,90.2z"/>
	</g>
</g>
<g>
	<g>
		<path d="M165.1,87.3c-0.1-0.1-0.2-0.2-0.3-0.3c-0.7-0.9-2-1.5-3.1-0.8c-0.9,0.6-1.5,2.1-0.8,3.1c0.1,0.1,0.2,0.2,0.3,0.3
			c0.7,0.9,2,1.5,3.1,0.8C165.2,89.8,165.8,88.3,165.1,87.3L165.1,87.3z"/>
	</g>
</g>
<g>
	<g>
		<path d="M159.7,83.3c-3.5-1.1-6.7-2.9-9.4-5.5c-2.1-2-5.3,1.2-3.2,3.2c3.2,3.1,7.1,5.3,11.3,6.7C161.3,88.5,162.5,84.1,159.7,83.3
			L159.7,83.3z"/>
	</g>
</g>
<g>
	<g>
		<path d="M155.5,83C155.4,83,155.4,83,155.5,83c-1,0.9-1,2.5-0.1,3.3c0.9,0.9,2.3,0.9,3.2,0c0,0,0.1-0.1,0.1-0.1
			c0.9-0.8,0.9-2.4,0-3.2C157.7,82.1,156.4,82.1,155.5,83L155.5,83z"/>
	</g>
</g>
<g>
	<g>
		<path d="M150.6,79C150.6,79,150.6,78.9,150.6,79c0-1.3-1-2.4-2.3-2.3c-1.2,0.1-2.3,1-2.3,2.3c0,0,0,0.1,0,0.1c0,1.2,1,2.3,2.3,2.3
			C149.5,81.2,150.6,80.3,150.6,79L150.6,79z"/>
	</g>
</g>
<g>
	<g>
		<path d="M182.8,57.3c12.5,2.5,9,16-0.3,20.2c-2.6,1.2-0.3,5.1,2.3,3.9C197.9,75.5,200,56.2,184,53
			C181.1,52.4,179.9,56.8,182.8,57.3L182.8,57.3z"/>
	</g>
</g>
<g>
	<g>
		<path d="M191.4,78.5c4.6-3.7,5.5-9.3,6.1-14.9c0.3-2.9-4.2-2.8-4.5,0c-0.3,3-0.4,6.5-1.9,9.1c-1.5,2.6,2.2,4.5,3.9,2.3
			c1.6-2.1,2.2-4.1,2.5-6.6c0.3-2.2-3.3-3.1-4.2-1.1c-0.8,1.9-1.1,3.4-0.6,5.5c0.4,1.7,2.6,2.1,3.8,1c3-2.9,1.8-8.9,1-12.5
			c-0.6-2.7-4.2-1.7-4.4,0.6c-0.2,1.4-0.2,2.6-0.2,4c0.1,2.9,4.5,2.9,4.5,0c0-0.7,0-1.5-0.1-2.2c-0.3-2.8-4.3-2.9-4.5,0
			c0,0.4,0,0.8-0.1,1.2c1.5,0,3,0,4.5,0c0-0.4,0-0.9,0-1.3c-1.5,0-3,0-4.5,0c0,0.2,0,0.3,0,0.5c1.5-0.2,2.9-0.4,4.4-0.6
			c-0.4-2.1-1.3-3.9-2.4-5.7c-1.5-2.5-5.4-0.2-3.9,2.3c0.9,1.5,1.7,2.9,2,4.6c0.5,2.5,4.5,1.9,4.4-0.6c0-0.2,0-0.3,0-0.5
			c0-2.9-4.5-2.9-4.5,0c0,0.4,0,0.9,0,1.3c0,2.9,4.3,2.9,4.5,0c0-0.4,0-0.8,0.1-1.2c-1.5,0-3,0-4.5,0c0.1,0.7,0.2,1.5,0.1,2.2
			c1.5,0,3,0,4.5,0c0-1.4,0-2.6,0.2-4c-1.5,0.2-2.9,0.4-4.4,0.6c0.3,1.7,1.6,6.8,0.1,8.1c1.3,0.3,2.5,0.7,3.8,1c0-0.7,0.1-1.3,0.1-2
			c-1.4-0.4-2.8-0.8-4.2-1.1c-0.2,1.7-0.9,3-1.9,4.3c1.3,0.8,2.6,1.5,3.9,2.3c1.9-3.4,2.1-7.6,2.5-11.4c-1.5,0-3,0-4.5,0
			c-0.4,4.5-1.1,8.8-4.8,11.7C186,77.1,189.2,80.3,191.4,78.5L191.4,78.5z"/>
	</g>
</g>
<g>
	<g>
		<path d="M184.4,55.1C184.4,55.1,184.4,55,184.4,55.1c0-1.3-1-2.4-2.3-2.3c-1.2,0.1-2.3,1-2.3,2.3c0,0,0,0.1,0,0.1
			c0,1.2,1,2.3,2.3,2.3C183.4,57.3,184.4,56.3,184.4,55.1L184.4,55.1z"/>
	</g>
</g>
<g>
	<g>
		<path d="M180.1,81.2c2.6,0.4,5.3-0.5,7.8-1.4c2.7-1,1.5-5.3-1.2-4.3c-0.9,0.3-1.8,0.6-2.8,0.9c-0.7,0.2-1.8,0.6-2.6,0.5
			c-1.2-0.2-2.4,0.3-2.8,1.6C178.3,79.5,178.9,81,180.1,81.2L180.1,81.2z"/>
	</g>
</g>
<g>
	<g>
		<path d="M178,81.1c4.2,0.4,8-1.3,12.1-1.7c2.9-0.3,2.9-4.8,0-4.5c-4.1,0.4-8,2.2-12.1,1.7C175.1,76.3,175.2,80.8,178,81.1
			L178,81.1z"/>
	</g>
</g>
<g>
	<g>
		<path d="M184.3,80.8c2.3-0.8,4.5-1.8,6.7-3c2.6-1.4,0.3-5.3-2.3-3.9c-1.8,1-3.7,1.8-5.6,2.5c-1.1,0.4-1.9,1.5-1.6,2.8
			C181.8,80.3,183.1,81.2,184.3,80.8L184.3,80.8z"/>
	</g>
</g>
<g>
	<g>
		<path d="M246.6,13.3c-6.1-3.1-12.5-3.5-19.2-3.2c-3.7,0.1-7.4,0.3-11.1,0.5c-2.2,0.1-6.8-0.4-8.8,0.8c-2.4,1.5-0.2,5.4,2.3,3.9
			c1.1-0.7,5.8-0.2,7.4-0.3c3.1-0.2,6.2-0.3,9.3-0.4c6.1-0.2,12.2-0.3,17.8,2.6C246.9,18.5,249.2,14.7,246.6,13.3L246.6,13.3z"/>
	</g>
</g>
<g>
	<g>
		<path d="M239.6,12.8c1.9-0.3,3.9-0.5,5.8-0.7c0-1.5,0-3,0-4.5c-1.9,0.3-3.9,0.5-5.8,0.8c0.2,1.5,0.4,2.9,0.6,4.4
			c1.6-0.4,3.1-0.6,4.7-0.6c-0.4-1.4-0.8-2.8-1.1-4.2c-1.1,0.7-2.4,0.8-3.4,1.6c-1.6,1.2-1.4,3.4,0.5,4.1c0.5,0.2,0.9,0.3,1.4,0.3
			c0.2,0,1-0.1,1.1-0.1c-0.4-0.6-0.7-1.3-1.1-1.9c0,0.1,0,0.2,0,0.3c0.2-0.5,0.4-1.1,0.7-1.6c-0.3,0.3-0.7,0.7-1,1.1
			c-1.2,1.7,0.8,3.7,2.5,3.3c0.3-0.1,0.7-0.1,1-0.2c2.1-0.4,2.2-4,0-4.3c-1.3-0.2-2.6-1.1-3.9-1.4c-1.3-0.3-2.5-0.5-3.7-0.9
			c-1.8-0.6-5.2-0.5-5,2.2c0.2,2.9,4.7,2.9,4.5,0c0,0,0-0.1,0-0.1c-0.2,0.5-0.4,1.1-0.7,1.6c-0.8,0.7,0.2,0.8,1,1
			c0.7,0.2,1.4,0.2,2.1,0.4c1.6,0.3,3,1.3,4.5,1.6c0-1.4,0-2.9,0-4.3c-0.3,0.1-0.7,0.1-1,0.2c0.8,1.1,1.7,2.2,2.5,3.3
			c-0.7,1,0.5-0.5,0.7-0.9c0.3-0.7,0.2-1.6-0.1-2.3c-1-1.7-2.9-0.9-4.4-1.5c0.2,1.4,0.4,2.7,0.5,4.1c1-0.7,2.3-0.9,3.4-1.6
			c1.8-1.2,1.2-4.3-1.1-4.2c-2,0.1-4,0.4-5.9,0.8C236.6,9,237.1,13.3,239.6,12.8c2-0.2,3.9-0.4,5.8-0.7c2.8-0.4,2.9-4.7,0-4.5
			c-2.4,0.2-4.7,0.5-7,0.8C235.6,8.9,236.8,13.2,239.6,12.8L239.6,12.8z"/>
	</g>
</g>
<g>
	<g>
		<path d="M213.9,45.7c1.9-0.2,3.7-0.4,5.6-0.6c1.5-0.2,4-0.9,5.4-0.6c-0.6-0.7-1.1-1.4-1.7-2.2c0,0.9-0.4,2.1-0.5,3.1
			c0.9-0.7,1.9-1.4,2.8-2.2c-3.4-1.1-7.5-0.8-11-0.8c-2.9,0-2.9,4.5,0,4.5c3.1,0,6.9-0.3,9.9,0.6c1.5,0.5,2.7-0.8,2.8-2.2
			c0.1-1,0.5-2,0.5-3.1c0-0.9-0.7-2-1.7-2.2c-1.8-0.4-3.9,0.2-5.7,0.4c-2.1,0.2-4.3,0.5-6.4,0.7C211,41.5,211,46,213.9,45.7
			L213.9,45.7z"/>
	</g>
</g>
<g>
	<g>
		<path d="M282,25c-0.3-0.3-0.4-0.6-0.6-0.9c-0.3-0.6-0.7-1-1.1-1.5c-0.7-0.9-1.4-1.8-1.9-2.9c-1.3,0.8-2.6,1.5-3.9,2.3
			c0.8,1.1,1.6,2.7,3.1,2.9c1.3,0.2,2.9-0.6,2.8-2.2c0,0-0.4,0.5-0.5,0.5c-0.4-1.4-0.8-2.8-1.1-4.2c-1,0.7-1.6,1.4-2,2.5
			c-0.3,0.8,0.2,1.9,0.8,2.4c0.8,0.6,1.6,0.6,2.5,0.2c0.9-0.4,1.6-1.1,2-2c1.2-2.7-2.1-4.6-3.9-2.3c-0.4,0.5-0.6,1.1-0.8,1.7
			c1.4,0.4,2.9,0.8,4.3,1.2c0.8-2.1-1.6-4.7-3.7-3.2c-1,0.7-1.5,2-0.8,3.1c0.6,1,2.1,1.5,3.1,0.8c0,0,0.1-0.1,0.1-0.1
			c-0.6,0.1-1.2,0.2-1.7,0.2c0.1,0,0.1,0,0.2,0c-0.3-0.2-0.7-0.4-1-0.6c0,0,0.1,0.1,0.1,0.1c-0.2-0.5-0.4-1.1-0.7-1.6c0,0,0,0,0,0
			c-0.4,1.1,0.5,2.5,1.6,2.8c1.3,0.3,2.3-0.4,2.8-1.6c0.1-0.2,0.3-0.4,0.4-0.6c-1.3-0.8-2.6-1.5-3.9-2.3c-0.2,0.5,0.1,0.1-0.4,0.4
			c1.1,0.8,2.2,1.7,3.3,2.5c-0.1,0.2-0.2,0.3-0.1,0.2c1.8-1.2,1.2-4.2-1.1-4.2c-2.3,0-4.2,1.7-4,4c0.9-0.7,1.9-1.4,2.8-2.2
			c-0.1,0-0.2,0-0.3,0c0.3,0.2,0.7,0.4,1,0.6c-0.4-0.4-0.8-0.9-1.1-1.4c-1.6-2.4-5.1-0.3-3.9,2.3c0.6,1.3,1.4,2.4,2.4,3.6
			c0.7,0.9,1,2,1.8,2.7c0.9,0.8,2.3,0.9,3.2,0C282.8,27.4,282.9,25.8,282,25L282,25z"/>
	</g>
</g>
<g>
	<g>
		<path d="M280.9,24.4c-7.1-4.8-16.9-4.9-25.1-3.6c-2.9,0.4-1.6,4.8,1.2,4.3c7-1.1,15.6-0.9,21.7,3.2
			C281.1,30,283.3,26.1,280.9,24.4L280.9,24.4z"/>
	</g>
</g>
<g>
	<g>
		<path d="M277.1,20.2c-1.1-0.5-2.3-0.7-3.6-0.7c0.2,1.5,0.4,2.9,0.6,4.4c0.3-0.1,0.6-0.2,0.9-0.3c0.3,0,0.3-0.1,0.1,0
			c0.2,0,0.3,0,0.5,0c-0.2-1.5-0.4-2.9-0.6-4.4c-0.5,0.1-0.4,0.1-0.8,0.1c-0.4,0-0.7,0-1.1,0c0.2,1.5,0.4,2.9,0.6,4.4
			c-0.4,0.1,0.3,0,0.5,0c1.2,0.1,2.3-1.1,2.3-2.3c-0.1-1.3-1-2.1-2.3-2.3c-0.6,0-1.1,0-1.7,0.1c-1.1,0.2-1.8,1.4-1.6,2.5
			c0.1,1.1,1.1,1.9,2.2,2c1,0,2.1-0.1,3.1-0.3c2.5-0.5,1.9-4.6-0.6-4.4c-0.9,0-1.8,0.2-2.7,0.5c-1.1,0.4-1.8,1.3-1.6,2.5
			c0.1,1.1,1.1,1.9,2.2,2c0.2,0,0.5,0,0.7,0c-0.4,0,0.3,0.1,0.3,0.1c0.5,0.1,0.9,0.3,1.3,0.4c1.1,0.5,2.5-0.5,2.8-1.6
			C279,21.7,278.3,20.7,277.1,20.2L277.1,20.2z"/>
	</g>
</g>
<g>
	<g>
		<path d="M248.8,57.1c3.3-0.2,6.7-0.3,10-0.4c-0.5-1.3-1.1-2.6-1.6-3.8c-1.9,1.6-5.7,1.4-8.1,1.7c-2.8,0.4-2.9,4.9,0,4.5
			c3.9-0.5,8.1-0.4,11.2-3c1.5-1.3,0.3-3.9-1.6-3.8c-3.3,0.1-6.7,0.3-10,0.4C245.9,52.8,245.9,57.3,248.8,57.1L248.8,57.1z"/>
	</g>
</g>
<g>
	<g>
		<path d="M96.2,68.5c2.1-2.3,3.2-5.4,2.5-8.5C98,56.8,95,55.9,92,55.9c-2.9,0-2.9,4.5,0,4.5c1.3,0,2.2-0.2,2.3,1.3
			c0.1,1.4-0.5,2.6-1.4,3.6C91.1,67.5,94.2,70.7,96.2,68.5L96.2,68.5z"/>
	</g>
</g>
<g>
	<g>
		<path d="M92.3,55.2c-0.6,0.3-1.1,0.6-1.7,0.9c-0.8,0.4-1.3,1.6-1,2.5c0.3,0.9,1.2,1.8,2.2,1.7c0.8-0.1,1.7-0.3,2.4-0.8
			c0.9-0.7,1.4-1.7,0.9-2.8c-0.4-1-1.6-1.7-2.7-1.3c-1.2,0.4-2.2,1-3.2,1.7c-0.9,0.7-0.8,2.2-0.2,3c0.7,0.9,1.9,1.1,2.9,0.6
			c0.4-0.2,0.7-0.4,1-0.6c1-0.6,1.5-2,0.8-3.1c-0.7-1.1-2-1.4-3.1-0.8c-0.3,0.2-0.6,0.3-0.9,0.5c0.8,1.3,1.5,2.6,2.3,3.9
			c0.1-0.1,0.3-0.2,0.5-0.3c0.2-0.1,0.2-0.1-0.1,0c0.1,0,0.2-0.1,0.3-0.1c0.2-0.1,0.3-0.1,0.5-0.1c0.1,0,0.2,0,0.3-0.1
			c-0.3,0-0.3,0-0.1,0c-0.4-1.4-0.8-2.8-1.1-4.2c0.5-0.2-0.1,0-0.1,0c-0.1,0-0.3,0.1-0.4,0.1c-0.1,0-0.4,0.1-0.4,0.1
			c0.1,0,0.2,0,0.2,0c-0.1,0-0.2,0-0.4,0c-1.2,0.1-2.3,1-2.3,2.3c0.1,1.1,1,2.3,2.3,2.3c1.2-0.1,2.3-0.4,3.4-0.9
			c0.9-0.4,1.3-1.7,1-2.5c-0.3-0.9-1.2-1.7-2.2-1.7c-1.3,0.1-2.5,0.4-3.6,1.1c-1,0.6-1.5,2-0.8,3.1c0.7,1.1,2,1.4,3.1,0.8
			c0.3-0.2,0.6-0.3,0.9-0.5c-0.8-1.3-1.5-2.6-2.3-3.9c-0.3,0.2-0.7,0.4-1,0.6c0.9,1.2,1.8,2.4,2.7,3.5c-0.4,0.3,0,0,0.1-0.1
			c0.1-0.1,0.3-0.2,0.5-0.3c0.2-0.1,0.3-0.2,0.5-0.2c-0.4,0.1-0.1,0,0.1,0c-0.6-1.4-1.2-2.7-1.7-4.1c0,0-0.4,0.3-0.4,0.3
			c0.1,0,0.2-0.1,0.2-0.1c-0.2,0.1-0.2,0.1,0.1,0c0.4,1.4,0.8,2.8,1.1,4.2c0.6-0.3,1.1-0.6,1.7-0.9c1-0.6,1.4-2.1,0.8-3.1
			C94.7,54.9,93.4,54.6,92.3,55.2L92.3,55.2z"/>
	</g>
</g>
<g>
	<g>
		<path d="M90,62.2c2-2.1,4.5-3.6,7.3-4.4c2.8-0.8,1.6-5.1-1.2-4.3c-3.6,1-6.8,2.8-9.3,5.5C84.8,61.1,88,64.3,90,62.2L90,62.2z"/>
	</g>
</g>
<g>
	<g>
		<path d="M90.5,61.6c1.2-0.6,2.6-1.1,4-1.2c1.2-0.1,2.3-0.9,2.3-2.3c0-1.1-1-2.4-2.3-2.3c-2.2,0.2-4.3,0.8-6.3,1.8
			C85.6,59.1,87.9,62.9,90.5,61.6L90.5,61.6z"/>
	</g>
</g>
<g>
	<g>
		<path d="M92.3,60.8c1,0,1.9-0.1,2.9-0.1c0.6,0,1.3-0.2,1.8,0.2c1,0.7,2.5,0.2,3.1-0.8c0.7-1.1,0.2-2.4-0.8-3.1
			c-1.9-1.3-4.8-0.8-6.9-0.7C89.4,56.4,89.4,60.9,92.3,60.8L92.3,60.8z"/>
	</g>
</g>
<g>
	<g>
		<path d="M93.9,60.8c-0.4-0.1,0.4,0.1,0.5,0.2c0.3,0.1,0.3,0.1,0.1,0c0.1,0,0.2,0.1,0.3,0.1c0.2,0.1,0.5,0.2,0.7,0.4
			c-0.3-0.2,0.3,0.3,0.3,0.4c0.8,0.9,2.4,0.9,3.2,0c0.9-0.9,0.9-2.3,0-3.2c-1.3-1.5-3.1-2.2-5.1-2.4c-1.2-0.2-2.3,1.1-2.3,2.3
			C91.7,59.9,92.7,60.6,93.9,60.8L93.9,60.8z"/>
	</g>
</g>
<g>
	<g>
		<path d="M120.8,86.6c1,0.1,2,0.2,3-0.1c0.9-0.3,1.7-1.1,1.7-2.2c-0.1-1.1-0.5-2-0.7-3.1c-0.3-1.6-0.3-3.3-0.4-5
			c-0.2-3.2-0.6-6.4-1-9.5c-0.4-2.9-4.8-1.6-4.3,1.2c0.5,3.2,0.8,6.4,0.9,9.6c0.1,1.1,0.1,2.1,0.2,3.2c0.1,1.2,0.8,2.4,0.8,3.5
			c0.6-0.7,1.1-1.4,1.7-2.2c-0.6,0.1-1.2,0.1-1.8-0.1C117.9,81.8,118,86.3,120.8,86.6L120.8,86.6z"/>
	</g>
</g>
<g>
	<g>
		<path d="M118.8,64.9c0.1,1.6,0.2,3.2,0.2,4.7c0.1,2.9,4.6,2.9,4.5,0c0-1.6-0.1-3.2-0.2-4.7c-0.1-1.2-1-2.3-2.3-2.3
			C119.9,62.6,118.7,63.7,118.8,64.9L118.8,64.9z"/>
	</g>
</g>
<g>
	<g>
		<path d="M116.1,14.7c0.6,0.1,1.2,0.1,1.8,0.2c-0.7-0.9-1.4-1.9-2.2-2.8c-0.6,2.8-0.5,5.9-0.7,8.7c-0.2,2.9,4.3,2.9,4.5,0
			c0.2-2.5,0.1-5.1,0.6-7.5c0.3-1.5-0.7-2.7-2.2-2.8c-0.6-0.1-1.2-0.1-1.8-0.2C113.3,9.9,113.3,14.4,116.1,14.7L116.1,14.7z"/>
	</g>
</g>
<g>
	<g>
		<path d="M115.4,15.1c-0.2,4.1,0,8.3,0.5,12.4c0.4,2.8,4.9,2.9,4.5,0c-0.5-4.1-0.7-8.2-0.5-12.4C120,12.2,115.5,12.2,115.4,15.1
			L115.4,15.1z"/>
	</g>
</g>
<g>
	<g>
		<path d="M137.6,15.8c0.5-0.1,0.9,0,1.4,0.1c-0.6-0.7-1.1-1.4-1.7-2.2c-0.4,4.2-0.3,8.2,0.3,12.4c0.4,2.9,4.7,1.6,4.3-1.2
			c-0.5-3.7-0.5-7.4-0.1-11.2c0.1-1-0.8-1.9-1.7-2.2c-0.9-0.2-1.7-0.3-2.6-0.3C134.7,11.4,134.7,15.9,137.6,15.8L137.6,15.8z"/>
	</g>
</g>
<g>
	<g>
		<path d="M137.6,26.4c0.2,2.1,0.3,4.3,0.3,6.4c0,2.9,4.5,2.9,4.5,0c0-2.2-0.1-4.3-0.3-6.4c-0.1-1.2-1-2.3-2.3-2.3
			C138.7,24.2,137.5,25.2,137.6,26.4L137.6,26.4z"/>
	</g>
</g>
<g>
	<g>
		<path d="M141.9,87.8c0.8,0.2,1.5,0.2,2.3,0c1.5-0.4,1.9-2,1.3-3.3c-0.3-0.7-0.3-1.6-0.4-2.4c-0.1-1-0.2-2-0.2-3
			c-0.2-2.9-4.7-2.9-4.5,0c0.2,2.6,0.1,5.3,1.2,7.7c0.4-1.1,0.9-2.2,1.3-3.3c0,0,0.1,0,0.1,0C140.3,82.7,139.1,87.1,141.9,87.8
			L141.9,87.8z"/>
	</g>
</g>
<g>
	<g>
		<path d="M219,87.9c0.5-0.1,1.1-0.1,1.6-0.2c0.6-0.1,1.1-0.2,1.6-0.7c0.4-0.4,0.7-1,0.7-1.6c0-1.1-1-2.4-2.3-2.3
			c-0.5,0.1-1.1,0.1-1.6,0.2c-0.6,0.1-1.1,0.2-1.6,0.7c-0.4,0.4-0.7,1-0.7,1.6C216.8,86.8,217.8,88.1,219,87.9L219,87.9z"/>
	</g>
</g>
<g>
	<g>
		<path d="M215.1,72.1c0.9,3.7,1.9,7.4,3.1,11c0.9,2.7,5.2,1.6,4.3-1.2c-1.2-3.6-2.2-7.3-3.1-11C218.7,68.1,214.4,69.3,215.1,72.1
			L215.1,72.1z"/>
	</g>
</g>
<g>
	<g>
		<path d="M220,87.5c1.8,0.7,3.4-1.2,3.4-2.8c0-1.1-0.7-2.2-1.2-3.1c-0.6-1-2.1-1.5-3.1-0.8c-1,0.7-1.4,2-0.8,3.1
			c0.2,0.3,0.4,0.7,0.5,1c0,0.1,0.3,0.5,0.3,0.5c-0.1-0.2-0.1-0.5-0.2-0.7c0-0.7,0.4-1.2,1.2-1.4c0.4,0,0.8,0,1.2,0c0,0-0.1,0-0.1,0
			c-1.1-0.4-2.5,0.5-2.8,1.6C218.2,86.1,218.9,87.1,220,87.5L220,87.5z"/>
	</g>
</g>
<g>
	<g>
		<path d="M213,62.3c0.4,3.6,1.1,7,2.1,10.5c0.8,2.8,5.2,1.6,4.3-1.2c-0.9-3-1.6-6.1-1.9-9.3C217.2,59.4,212.7,59.4,213,62.3
			L213,62.3z"/>
	</g>
</g>
<g>
	<g>
		<path d="M219.4,70.9c-0.4-1.2-0.7-2.4-0.9-3.7c-0.2-1.2-1.7-1.9-2.8-1.6c-1.3,0.4-1.8,1.6-1.6,2.8c0.2,1.2,0.5,2.5,0.9,3.7
			c0.4,1.2,1.6,1.9,2.8,1.6C218.9,73.3,219.7,72,219.4,70.9L219.4,70.9z"/>
	</g>
</g>
<g>
	<g>
		<path d="M219.4,71.1c-0.5-2.4-1.1-4.8-1.6-7.2c-0.6-2.8-4.9-1.6-4.3,1.2c0.5,2.4,1,4.8,1.6,7.2C215.7,75.1,220.1,73.9,219.4,71.1
			L219.4,71.1z"/>
	</g>
</g>
<g>
	<g>
		<path d="M213.2,64.1c0.1,0.5,0.2,1.1,0.3,1.6c0.2,1.2,1.7,1.9,2.8,1.6c1.2-0.4,1.8-1.5,1.6-2.8c-0.1-0.5-0.2-1.1-0.3-1.6
			c-0.2-1.2-1.7-1.9-2.8-1.6C213.6,61.7,213,62.8,213.2,64.1L213.2,64.1z"/>
	</g>
</g>
<g>
	<g>
		<path d="M222.8,82.6c-0.4-0.7-0.8-1.4-1.2-2c-0.6-1-2.1-1.5-3.1-0.8c-1,0.7-1.4,2-0.8,3.1c0.4,0.7,0.8,1.4,1.2,2
			c0.6,1,2.1,1.5,3.1,0.8C223,85,223.4,83.7,222.8,82.6L222.8,82.6z"/>
	</g>
</g>
<g>
	<g>
		<path d="M223.2,83.4c-0.6-1.4-1.3-2.7-2.3-3.9c-0.7-0.9-2.4-0.8-3.2,0c-0.9,1-0.8,2.2,0,3.2c0.2,0.2,0.2,0.2,0,0
			c0.1,0.1,0.2,0.2,0.2,0.3c0.1,0.2,0.3,0.4,0.4,0.6c0.1,0.2,0.2,0.4,0.3,0.6c0,0.1,0.4,0.8,0.2,0.4c0.4,1.1,1.5,2,2.8,1.6
			C222.6,85.8,223.6,84.6,223.2,83.4L223.2,83.4z"/>
	</g>
</g>
<g>
	<g>
		<path d="M253.4,99.1c0.7-0.1,1.4-0.1,2-0.3c1-0.4,1.6-1.1,1.7-2.2c0.1-1.2-0.5-2.6-0.7-3.9c-0.3-1.4-0.6-2.7-0.9-4.1
			c-0.6-2.8-5-1.6-4.3,1.2c0.3,1.2,0.5,2.4,0.8,3.6c0.2,0.9,0.8,2.3,0.7,3.2c0.6-0.7,1.1-1.4,1.7-2.2c-0.3,0.1-0.5,0.2-0.8,0.1
			C250.5,94.9,250.5,99.4,253.4,99.1L253.4,99.1z"/>
	</g>
</g>
<g>
	<g>
		<path d="M249.1,80.2c0.4,3.1,1,6.2,1.7,9.3c0.7,2.8,5.1,1.6,4.3-1.2c-0.7-2.7-1.2-5.4-1.6-8.1c-0.2-1.2-0.9-2.2-2.3-2.3
			C250.2,78,248.9,79,249.1,80.2L249.1,80.2z"/>
	</g>
</g>
<g>
	<g>
		<path d="M248.2,76.9c0.4,1.6,0.7,3.3,0.9,4.9c0.1,1.2,0.9,2.3,2.3,2.3c1.1,0,2.4-1,2.3-2.3c-0.3-2.1-0.6-4.1-1-6.1
			C251.9,72.9,247.6,74.1,248.2,76.9L248.2,76.9z"/>
	</g>
</g>
<g>
	<g>
		<path d="M247.7,72.6c0.4,2.3,0.7,4.7,1.1,7c0.2,1.2,1.7,1.9,2.8,1.6c1.3-0.4,1.8-1.6,1.6-2.8c-0.4-2.3-0.7-4.7-1.1-7
			c-0.2-1.2-1.7-1.9-2.8-1.6C247.9,70.2,247.5,71.4,247.7,72.6L247.7,72.6z"/>
	</g>
</g>
<g>
	<g>
		<path d="M247,69.1c0.3,1.8,0.6,3.6,1,5.4c0.2,1.2,1.7,1.9,2.8,1.6c1.3-0.3,1.8-1.6,1.6-2.8c-0.3-1.8-0.6-3.6-1-5.4
			c-0.2-1.2-1.7-1.9-2.8-1.6C247.4,66.6,246.8,67.9,247,69.1L247,69.1z"/>
	</g>
</g>
<g>
	<g>
		<path d="M248,74.6c0.5,2.7,0.9,5.4,1.3,8.1c0.2,1.2,1.7,1.9,2.8,1.6c1.3-0.3,1.7-1.6,1.6-2.8c-0.4-2.7-0.9-5.4-1.3-8.1
			C251.8,70.6,247.5,71.8,248,74.6L248,74.6z"/>
	</g>
</g>
<g>
	<g>
		<path d="M249,80c0.1,1.2,0.3,2.3,0.4,3.5c0.1,1.2,0.9,2.3,2.3,2.3c1.1,0,2.4-1,2.3-2.3c-0.1-1.2-0.3-2.3-0.4-3.5
			c-0.1-1.2-0.9-2.3-2.3-2.3C250.1,77.8,248.8,78.8,249,80L249,80z"/>
	</g>
</g>
<g>
	<g>
		<path d="M249.4,81.5c0.6,2.7,0.9,5.3,0.9,8c0,2.9,4.5,2.9,4.5,0c0-3.1-0.4-6.2-1.1-9.2C253.1,77.5,248.8,78.7,249.4,81.5
			L249.4,81.5z"/>
	</g>
</g>
<g>
	<g>
		<path d="M250.1,85.8c0.5,2.1,1,4.2,1.5,6.3c0.6,2.8,4.9,1.6,4.3-1.2c-0.4-2.1-0.9-4.2-1.5-6.3C253.7,81.8,249.3,83,250.1,85.8
			L250.1,85.8z"/>
	</g>
</g>
</svg>
